<svg xmlns="http://www.w3.org/2000/svg" xmlns:xlink="http://www.w3.org/1999/xlink" width="2000" zoomAndPan="magnify" viewBox="0 0 1500 1499.999933" height="2000" preserveAspectRatio="xMidYMid meet" version="1.0"><defs><clipPath id="2a4cd782fb"><path d="M 815 438 L 1089.75 438 L 1089.75 527 L 815 527 Z M 815 438 " clip-rule="nonzero"/></clipPath></defs><rect x="-150" width="1800" fill="#ffffff" y="-149.999993" height="1799.99992" fill-opacity="1"/><rect x="-150" width="1800" fill="#ffffff" y="-149.999993" height="1799.99992" fill-opacity="1"/><path fill="#e3d8cb" d="M 321.890625 1041.835938 C 377.03125 959.78125 432.726562 979.960938 484.363281 990.167969 C 433.949219 1050.277344 392.601562 1060.691406 321.890625 1041.835938 Z M 321.890625 1041.835938 " fill-opacity="1" fill-rule="nonzero"/><path fill="#e3d8cb" d="M 423.476562 746.089844 C 523.246094 699.179688 540.703125 739.429688 583.554688 717.09375 C 537.285156 780.3125 479.625 790.652344 423.476562 746.089844 Z M 423.476562 746.089844 " fill-opacity="1" fill-rule="nonzero"/><path fill="#e3d8cb" d="M 828.050781 855.734375 C 829.132812 852.953125 827.859375 849.800781 825.335938 848.226562 C 807.480469 837.066406 791.457031 825.402344 775.949219 814.117188 C 752.355469 796.9375 730.441406 781 708.09375 771.902344 C 704.84375 770.585938 705.128906 765.921875 708.539062 765.074219 C 750.050781 754.71875 796.554688 741.78125 851.34375 719.839844 C 854.4375 718.601562 856.289062 715.15625 855.214844 712.007812 C 854.058594 708.648438 850.347656 706.972656 847.097656 708.289062 C 779.601562 735.339844 724.613281 748.628906 676.082031 760.347656 C 668.222656 762.242188 660.550781 764.101562 652.980469 765.988281 C 650.902344 766.429688 648.816406 766.933594 646.714844 767.554688 C 628.042969 772.261719 610.183594 777.15625 592.886719 783.0625 C 590.183594 783.976562 588.1875 780.546875 590.351562 778.679688 C 610.886719 760.816406 631.9375 740.675781 653.734375 717.476562 C 658.464844 712.441406 663.054688 707.492188 667.59375 702.558594 C 667.628906 702.515625 667.679688 702.488281 667.703125 702.449219 C 667.738281 702.40625 667.78125 702.363281 667.8125 702.324219 C 769.125 592.09375 823.519531 505.21875 851.519531 450.90625 C 883.511719 388.882812 889.113281 355.035156 889.339844 353.621094 C 889.867188 350.269531 887.574219 347.117188 884.222656 346.597656 C 880.878906 346.0625 877.730469 348.339844 877.175781 351.691406 C 877 352.898438 857.585938 463.164062 698.8125 648.878906 C 696.617188 651.441406 692.488281 649.347656 693.242188 646.054688 C 707.097656 586.1875 700.949219 503.085938 692.734375 431.132812 C 692.304688 427.355469 688.542969 424.78125 684.726562 425.980469 C 681.886719 426.871094 680.203125 429.792969 680.535156 432.75 C 690.722656 521.925781 699.449219 645.863281 658.53125 694.253906 C 654.035156 699.140625 649.476562 704.066406 644.785156 709.050781 C 549.128906 810.785156 467.597656 853.789062 381.261719 899.316406 C 370.597656 904.945312 349.265625 916.363281 338.59375 922.09375 C 337.160156 922.875 335.695312 921.15625 336.675781 919.851562 C 339.027344 916.726562 344.792969 908.304688 345.078125 907.8125 C 363.746094 879.207031 376.570312 845.59375 386.496094 809.015625 C 387.921875 803.765625 389.695312 798.621094 392.042969 793.710938 C 411.640625 752.507812 439.132812 728.871094 468.132812 703.941406 C 489.179688 685.859375 510.933594 667.152344 530.285156 640.96875 C 532.261719 638.296875 532.007812 634.402344 529.4375 632.300781 C 526.691406 630.046875 522.660156 630.582031 520.582031 633.394531 C 502.015625 658.589844 480.710938 676.894531 460.117188 694.605469 C 440.371094 711.582031 420.195312 728.941406 402.753906 752.28125 C 401.707031 753.6875 399.496094 752.714844 399.832031 751 C 403.691406 731.621094 407.226562 711.796875 410.796875 691.765625 C 426.375 604.164062 442.484375 513.582031 488.203125 433.488281 C 489.683594 430.898438 489.296875 427.53125 487.035156 425.597656 C 484.003906 422.980469 479.53125 423.878906 477.648438 427.171875 C 430.78125 509.175781 414.472656 600.90625 398.691406 689.613281 C 391.949219 727.515625 385.507812 763.667969 377.082031 796.953125 C 377.082031 796.960938 377.074219 796.976562 377.074219 796.984375 C 376.804688 797.597656 376.664062 798.234375 376.605469 798.871094 C 371.578125 818.5 365.832031 837.101562 358.90625 854.460938 C 358.34375 855.875 356.285156 855.582031 356.109375 854.074219 C 354.296875 837.988281 348.5625 820.746094 338.894531 802.433594 C 320.835938 768.199219 292.617188 735.617188 264.796875 705.507812 C 261.867188 702.339844 256.386719 702.949219 254.453125 707.582031 C 253.582031 709.6875 254.167969 712.125 255.71875 713.800781 L 255.769531 713.859375 C 316.480469 779.617188 367.910156 847.933594 333.792969 902.792969 C 333.601562 903.101562 333.441406 903.421875 333.316406 903.738281 C 320.894531 922.070312 305.816406 938.039062 287.136719 951.167969 C 287.070312 951.226562 287.027344 951.277344 286.960938 951.335938 C 249.261719 973.796875 209.128906 1000.472656 165.554688 1035.28125 C 164.777344 1035.667969 164.109375 1036.210938 163.570312 1036.867188 C 114.679688 1076.09375 61.457031 1125.53125 2.429688 1190.703125 C 0.292969 1193.050781 0.328125 1196.617188 2.414062 1198.921875 C 2.554688 1199.089844 2.695312 1199.242188 2.855469 1199.375 C 5.378906 1201.652344 9.265625 1201.46875 11.542969 1198.949219 C 59.832031 1145.648438 103.738281 1103.179688 144.507812 1068.308594 C 165.714844 1050.171875 192.410156 1039.640625 220.296875 1038.734375 C 342.152344 1034.761719 467.871094 1130.121094 469.296875 1131.21875 C 471.992188 1133.289062 475.855469 1132.785156 477.921875 1130.097656 C 479.992188 1127.40625 479.5 1123.546875 476.800781 1121.46875 C 475.085938 1120.160156 434.234375 1088.925781 375.507812 1062.34375 C 330.953125 1042.179688 269.070312 1021.9375 207.664062 1027.179688 C 203.726562 1027.53125 201.808594 1022.488281 204.992188 1020.144531 C 235.808594 997.398438 264.964844 978.546875 293.136719 961.832031 C 293.503906 961.671875 293.863281 961.480469 294.207031 961.238281 C 294.308594 961.171875 294.398438 961.085938 294.5 961.019531 C 311.09375 951.21875 327.351562 942.136719 343.402344 933.429688 C 343.441406 933.398438 343.484375 933.378906 343.527344 933.363281 C 373.597656 916.480469 434.625 922.566406 488.476562 927.933594 C 505.992188 929.6875 522.542969 931.335938 537.269531 932.125 C 540.585938 932.300781 543.667969 929.945312 544.019531 926.652344 C 544.378906 923.117188 541.726562 920.050781 538.222656 919.859375 C 523.707031 919.097656 507.191406 917.445312 489.699219 915.695312 C 459.136719 912.652344 426.324219 909.378906 397.410156 910.164062 C 394.730469 910.230469 393.808594 906.613281 396.179688 905.355469 C 396.214844 905.347656 396.246094 905.332031 396.273438 905.3125 C 441.496094 881.429688 485.597656 857.617188 531.304688 825.160156 C 569.859375 801.058594 608.886719 789.570312 655.632812 777.992188 C 694.089844 769.765625 727.257812 793.878906 768.738281 824.074219 C 784.460938 835.515625 800.726562 847.363281 819.046875 858.808594 C 822.246094 860.800781 826.609375 859.46875 828.050781 855.734375 Z M 828.050781 855.734375 " fill-opacity="1" fill-rule="nonzero"/><path fill="#e3d8cb" d="M 284.894531 737.183594 C 274.128906 620.871094 160.398438 571.851562 160.398438 571.851562 C 183.019531 704.199219 244.835938 734.46875 284.894531 737.183594 Z M 284.894531 737.183594 " fill-opacity="1" fill-rule="nonzero"/><path fill="#e3d8cb" d="M 437.398438 1099.550781 C 525.300781 1077.984375 551.71875 1085.015625 656.773438 1204.789062 C 565.90625 1216.910156 473.097656 1218.753906 437.398438 1099.550781 Z M 437.398438 1099.550781 " fill-opacity="1" fill-rule="nonzero"/><path fill="#e3d8cb" d="M 219.558594 1002.199219 C 305.246094 872.824219 211.40625 784.484375 211.40625 784.484375 C 160.800781 898.328125 158.394531 934.015625 219.558594 1002.199219 Z M 219.558594 1002.199219 " fill-opacity="1" fill-rule="nonzero"/><path fill="#e3d8cb" d="M 499.28125 922.824219 C 607.664062 810.015625 727.847656 906.410156 727.847656 906.410156 C 622.839844 972.789062 547.453125 984.871094 499.28125 922.824219 Z M 499.28125 922.824219 " fill-opacity="1" fill-rule="nonzero"/><path fill="#e3d8cb" d="M 494.398438 672.1875 C 625.472656 642.234375 654.722656 515.449219 647.976562 482.660156 C 548.160156 544.371094 485.519531 604.222656 494.398438 672.1875 Z M 494.398438 672.1875 " fill-opacity="1" fill-rule="nonzero"/><path fill="#e3d8cb" d="M 418.578125 616.875 C 386.488281 455.464844 322.609375 475.429688 285.738281 426.910156 C 308.90625 602.960938 363.078125 594.574219 418.578125 616.875 Z M 418.578125 616.875 " fill-opacity="1" fill-rule="nonzero"/><path fill="#e3d8cb" d="M 456.4375 485.246094 C 548.84375 424.539062 558.476562 335.5 516.539062 235.28125 C 443.035156 345.628906 427.464844 425.914062 456.4375 485.246094 Z M 456.4375 485.246094 " fill-opacity="1" fill-rule="nonzero"/><path fill="#e3d8cb" d="M 785.550781 828.664062 C 913.824219 842.183594 945.050781 891.785156 983.75 960.105469 C 866.832031 944.765625 847.859375 930.246094 785.550781 828.664062 Z M 785.550781 828.664062 " fill-opacity="1" fill-rule="nonzero"/><path fill="#e3d8cb" d="M 776.203125 739.949219 C 879.296875 614.730469 970.3125 626.585938 1023.886719 640 C 894.675781 750.914062 848.925781 752.472656 776.203125 739.949219 Z M 776.203125 739.949219 " fill-opacity="1" fill-rule="nonzero"/><path fill="#e3d8cb" d="M 695.898438 670.835938 C 800.558594 587.351562 828.535156 578.242188 876.179688 583.582031 C 806.253906 680.019531 754.648438 676.9375 695.898438 670.835938 Z M 695.898438 670.835938 " fill-opacity="1" fill-rule="nonzero"/><g clip-path="url(#2a4cd782fb)"><path fill="#e3d8cb" d="M 815.878906 512.695312 C 954.917969 421.609375 1036.621094 436.503906 1089.75 444.949219 C 938.171875 538.480469 903.152344 536.753906 815.878906 512.695312 Z M 815.878906 512.695312 " fill-opacity="1" fill-rule="nonzero"/></g><path fill="#e3d8cb" d="M 857.996094 423.644531 C 855.960938 295.492188 903.621094 247.246094 997.609375 176.054688 C 992.914062 358.4375 941.464844 371.355469 857.996094 423.644531 Z M 857.996094 423.644531 " fill-opacity="1" fill-rule="nonzero"/><path fill="#e3d8cb" d="M 698.636719 500.597656 C 799.304688 424.734375 838.753906 371.816406 831.804688 276.273438 C 708.503906 368.472656 703.898438 430.304688 698.636719 500.597656 Z M 698.636719 500.597656 " fill-opacity="1" fill-rule="nonzero"/><path fill="#e3d8cb" d="M 690.210938 465.691406 C 738.558594 331.796875 617.398438 220.863281 587.71875 208.714844 C 588.003906 337.058594 607.832031 415.878906 690.210938 465.691406 Z M 690.210938 465.691406 " fill-opacity="1" fill-rule="nonzero"/></svg>