<svg xmlns="http://www.w3.org/2000/svg" xmlns:xlink="http://www.w3.org/1999/xlink" width="2000" zoomAndPan="magnify" viewBox="0 0 1500 1499.999933" height="2000" preserveAspectRatio="xMidYMid meet" version="1.0"><path fill="#ffffff" d="M 478.933594 906.972656 C 511.054688 872.09375 526.25 827.890625 542.136719 784.378906 C 559.75 736.035156 575.640625 686.996094 589.453125 637.269531 C 616.046875 542.648438 635.390625 445.957031 645.058594 348.226562 C 647.824219 349.609375 650.929688 350.644531 653.695312 352.027344 C 574.949219 416.949219 531.429688 504.316406 507.945312 602.046875 C 495.511719 653.15625 484.804688 705.300781 476.515625 757.097656 C 472.371094 784.378906 469.261719 812.007812 467.535156 839.289062 C 466.847656 851.71875 466.5 864.152344 466.847656 876.582031 C 467.535156 882.453125 466.847656 921.820312 478.933594 906.972656 C 483.078125 901.792969 490.332031 909.042969 486.1875 914.222656 C 481.351562 920.09375 462.703125 933.5625 459.59375 917.675781 C 454.757812 890.394531 456.484375 860.699219 458.210938 833.070312 C 462.011719 768.496094 475.136719 704.609375 488.949219 641.414062 C 501.730469 583.050781 515.890625 525.035156 543.519531 471.511719 C 568.730469 422.472656 604.652344 379.308594 647.132812 344.429688 C 650.238281 342.011719 656.457031 343.046875 655.765625 348.226562 C 645.75 446.992188 626.410156 544.375 599.816406 640.03125 C 585.308594 691.832031 568.386719 742.941406 550.082031 793.359375 C 534.195312 836.871094 518.308594 879.691406 486.53125 914.222656 C 481.695312 919.058594 474.445312 911.808594 478.933594 906.972656 Z M 478.933594 906.972656 " fill-opacity="1" fill-rule="nonzero"/><path fill="#ffffff" d="M 636.425781 800.609375 C 623.644531 797.847656 620.882812 786.796875 622.609375 774.710938 C 626.410156 748.121094 635.042969 721.875 642.296875 695.976562 C 656.457031 645.902344 671.652344 596.519531 692.03125 548.519531 C 712.753906 499.828125 738.3125 453.207031 764.558594 407.625 C 782.171875 376.890625 808.078125 353.0625 827.761719 323.710938 C 829.144531 321.984375 831.21875 320.601562 833.632812 321.292969 C 866.101562 331.304688 831.90625 402.789062 826.382812 420.054688 C 806.695312 479.453125 789.082031 539.886719 765.941406 597.902344 C 756.269531 622.421875 744.875 645.902344 731.402344 668.695312 C 717.933594 691.140625 701.011719 710.824219 686.851562 732.582031 C 675.453125 749.847656 664.402344 767.804688 652.65625 785.070312 C 649.203125 789.90625 642.988281 802.335938 635.390625 800.265625 C 629.863281 798.882812 630.898438 789.558594 636.769531 790.25 C 637.117188 790.25 637.460938 790.25 638.152344 790.25 C 644.714844 790.941406 644.714844 801.300781 638.152344 800.609375 C 637.460938 800.957031 637.117188 800.609375 636.425781 800.609375 C 637.117188 797.15625 637.460938 794.050781 637.808594 790.597656 C 634.351562 789.558594 639.878906 785.761719 641.953125 782.652344 C 646.097656 776.78125 649.894531 770.910156 653.695312 765.042969 C 663.363281 750.191406 672.691406 734.996094 682.707031 720.492188 C 694.449219 703.226562 707.917969 686.996094 718.96875 669.386719 C 732.785156 647.972656 743.835938 624.835938 753.507812 601.007812 C 772.15625 555.769531 785.972656 508.460938 801.167969 462.1875 C 809.457031 436.976562 818.09375 411.421875 826.382812 386.214844 C 829.488281 376.890625 845.03125 336.140625 830.527344 331.652344 C 832.597656 330.960938 834.324219 329.925781 836.398438 329.234375 C 830.871094 337.867188 825 346.15625 818.785156 354.445312 C 808.421875 368.601562 794.953125 380 784.9375 394.5 C 758.6875 432.144531 737.621094 476 717.589844 517.441406 C 697.210938 559.570312 680.980469 603.082031 667.507812 647.628906 C 660.257812 671.113281 653.347656 694.59375 646.785156 718.421875 C 643.679688 729.472656 622.265625 787.140625 639.1875 790.941406 C 645.75 792.324219 642.988281 801.992188 636.425781 800.609375 Z M 636.425781 800.609375 " fill-opacity="1" fill-rule="nonzero"/><path fill="#ffffff" d="M 818.4375 675.253906 C 814.292969 680.433594 806.695312 679.398438 806.351562 672.148438 C 805.660156 661.441406 809.804688 649.355469 812.222656 638.996094 C 823.964844 591.339844 838.816406 544.375 854.011719 497.753906 C 871.28125 444.574219 889.238281 391.046875 912.726562 340.285156 C 937.246094 287.105469 973.167969 243.246094 1008.050781 196.972656 C 1010.121094 194.210938 1013.574219 193.519531 1015.992188 195.9375 C 1021.863281 201.460938 1018.410156 213.894531 1017.375 220.800781 C 1015.300781 235.304688 1015.300781 249.808594 1012.882812 264.3125 C 1005.632812 308.859375 986.636719 350.300781 966.257812 390.011719 C 942.773438 436.285156 916.179688 481.179688 891.65625 527.109375 C 866.101562 575.453125 841.921875 624.492188 819.128906 674.566406 C 816.367188 680.433594 807.386719 675.253906 810.148438 669.386719 C 850.210938 581.671875 896.492188 497.753906 942.429688 413.148438 C 964.1875 373.089844 985.253906 331.652344 997.6875 287.449219 C 1002.523438 269.835938 1002.867188 252.917969 1004.941406 234.960938 C 1005.632812 229.78125 1012.195312 206.640625 1008.738281 203.1875 C 1011.503906 202.84375 1014.265625 202.5 1016.683594 202.152344 C 989.054688 238.757812 959.695312 273.636719 937.246094 314.039062 C 910.308594 362.386719 892.003906 414.875 874.390625 467.367188 C 859.882812 510.53125 846.414062 554.042969 833.980469 597.554688 C 829.144531 614.824219 824.308594 632.089844 820.164062 649.699219 C 818.785156 654.882812 817.746094 660.40625 816.710938 665.585938 C 816.367188 667.3125 816.367188 669.039062 816.019531 670.421875 C 816.019531 673.875 808.078125 671.457031 810.496094 668.003906 C 815.328125 662.476562 822.582031 670.074219 818.4375 675.253906 Z M 818.4375 675.253906 " fill-opacity="1" fill-rule="nonzero"/><path fill="#ffffff" d="M 367.03125 976.382812 C 391.207031 903.863281 410.203125 829.273438 410.203125 752.265625 C 410.203125 719.113281 405.714844 685.960938 396.734375 654.191406 C 393.972656 643.832031 389.828125 634.160156 388.792969 623.457031 C 388.101562 617.238281 387.410156 610.679688 386.027344 604.460938 C 383.609375 594.449219 372.558594 607.570312 370.140625 611.714844 C 357.363281 632.78125 349.765625 657.988281 342.855469 681.472656 C 333.53125 713.242188 333.875 745.703125 332.496094 778.507812 C 330.769531 818.914062 329.042969 858.972656 326.96875 899.375 C 325.242188 940.125 319.714844 981.910156 345.273438 1017.132812 C 343.203125 1016.441406 341.476562 1015.40625 339.402344 1014.714844 C 354.597656 1012.644531 363.578125 988.816406 367.03125 976.382812 C 368.757812 969.824219 378.773438 972.585938 377.046875 979.144531 C 372.558594 995.03125 361.507812 1021.96875 342.511719 1024.730469 C 340.09375 1025.074219 338.367188 1024.382812 336.640625 1022.3125 C 311.082031 987.433594 314.535156 947.03125 316.609375 906.28125 C 318.679688 856.898438 321.097656 807.863281 323.167969 758.480469 C 324.550781 724.292969 327.660156 694.59375 338.019531 661.789062 C 344.238281 642.449219 352.527344 608.605469 369.796875 595.828125 C 392.246094 578.910156 396.734375 600.664062 398.808594 620.003906 C 400.535156 635.886719 406.75 650.738281 410.550781 666.277344 C 414.695312 683.890625 417.113281 701.847656 418.839844 719.804688 C 426.78125 807.515625 404.332031 896.265625 376.703125 978.800781 C 374.976562 985.363281 364.960938 982.597656 367.03125 976.382812 Z M 367.03125 976.382812 " fill-opacity="1" fill-rule="nonzero"/><path fill="#ffffff" d="M 261.691406 1072.730469 C 259.621094 1007.464844 252.714844 942.542969 239.589844 879 C 233.371094 848.957031 225.082031 818.914062 214.722656 789.90625 C 212.648438 784.726562 208.851562 781.273438 212.996094 779.199219 C 211.957031 779.546875 211.269531 781.617188 210.578125 782.652344 C 207.46875 788.523438 205.742188 795.429688 204.359375 801.644531 C 194.34375 839.289062 190.890625 879.691406 191.234375 918.367188 C 191.234375 939.433594 194 958.425781 203.324219 977.765625 C 219.558594 1011.261719 247.53125 1039.925781 270.328125 1069.277344 C 274.472656 1074.457031 267.21875 1081.710938 263.074219 1076.53125 C 238.550781 1045.105469 209.542969 1013.679688 191.925781 977.765625 C 182.257812 958.082031 181.21875 936.671875 180.875 915.261719 C 180.53125 872.785156 183.984375 824.09375 199.179688 783.6875 C 201.253906 778.507812 207.46875 764.695312 215.414062 770.566406 C 220.59375 774.367188 222.320312 781.617188 224.390625 787.488281 C 231.300781 805.789062 236.480469 824.785156 241.660156 843.429688 C 261.003906 918.023438 269.636719 996.066406 272.054688 1073.074219 C 272.054688 1079.292969 262.039062 1079.292969 261.691406 1072.730469 Z M 261.691406 1072.730469 " fill-opacity="1" fill-rule="nonzero"/><path fill="#ffffff" d="M 512.089844 972.929688 C 554.917969 956.699219 598.433594 954.28125 643.679688 953.246094 C 698.246094 952.210938 752.816406 953.246094 807.386719 956.355469 C 905.816406 962.226562 1003.90625 975.691406 1099.917969 998.484375 C 1104.410156 999.519531 1104.753906 1005.738281 1101.300781 1007.808594 C 1052.601562 1037.507812 998.035156 1057.535156 941.390625 1065.132812 C 877.496094 1073.421875 813.949219 1066.167969 750.746094 1058.574219 C 690.996094 1051.320312 630.898438 1042.339844 572.875 1025.765625 C 548.007812 1018.859375 521.070312 1010.917969 498.273438 998.140625 C 482.734375 989.507812 504.492188 975.347656 512.089844 972.929688 C 518.308594 970.859375 521.070312 980.871094 514.851562 982.945312 C 493.441406 989.851562 522.796875 998.140625 531.085938 1001.246094 C 541.792969 1005.390625 552.84375 1008.84375 563.894531 1012.296875 C 586.691406 1019.550781 610.175781 1025.074219 633.664062 1029.910156 C 686.503906 1040.960938 740.382812 1047.175781 793.917969 1053.046875 C 846.066406 1058.917969 898.566406 1061.679688 950.71875 1053.046875 C 1002.179688 1044.757812 1051.566406 1025.765625 1095.773438 998.832031 C 1096.121094 1001.9375 1096.464844 1005.046875 1097.15625 1008.152344 C 1001.832031 985.707031 905.128906 972.585938 807.386719 966.367188 C 757.308594 963.261719 707.226562 962.570312 657.148438 962.914062 C 608.449219 963.605469 561.132812 964.988281 514.851562 982.597656 C 508.636719 985.015625 505.875 975.003906 512.089844 972.929688 Z M 512.089844 972.929688 " fill-opacity="1" fill-rule="nonzero"/><path fill="#ffffff" d="M 676.144531 869.332031 C 674.417969 887.289062 736.238281 885.5625 746.945312 886.253906 C 771.46875 887.980469 795.988281 888.667969 820.855469 889.707031 C 866.101562 891.433594 911 890.050781 955.898438 885.5625 C 1002.523438 880.726562 1049.148438 872.785156 1094.738281 862.425781 C 1111.660156 858.625 1126.859375 849.300781 1143.4375 843.777344 C 1154.488281 839.976562 1165.539062 836.871094 1176.9375 834.109375 C 1175.554688 835.835938 1174.519531 837.5625 1173.140625 838.941406 C 1173.828125 824.4375 1136.527344 824.785156 1127.203125 824.785156 C 1100.609375 824.09375 1073.671875 824.09375 1047.078125 823.746094 C 996.996094 823.058594 946.917969 820.984375 897.183594 823.402344 C 848.140625 825.472656 804.277344 838.941406 757.652344 851.71875 C 740.730469 856.554688 723.460938 860.351562 706.191406 864.496094 C 699.285156 866.222656 692.375 867.949219 685.8125 870.023438 C 683.394531 870.710938 680.980469 871.402344 678.5625 872.4375 C 674.417969 873.820312 676.488281 874.855469 676.488281 871.058594 C 673.035156 870.710938 669.925781 870.023438 666.472656 869.675781 C 666.472656 869.332031 666.820312 868.984375 666.820312 868.296875 C 668.199219 861.734375 678.214844 864.496094 676.835938 871.058594 C 676.835938 871.402344 676.488281 871.75 676.488281 872.4375 C 675.105469 877.964844 666.128906 876.929688 666.472656 871.058594 C 666.820312 863.460938 677.523438 861.734375 683.050781 860.007812 C 702.390625 854.136719 722.421875 849.992188 742.109375 845.15625 C 767.324219 838.941406 791.5 829.964844 816.367188 823.746094 C 844.6875 816.839844 874.042969 814.078125 903.054688 812.695312 C 964.1875 809.933594 1026.007812 813.042969 1087.140625 813.734375 C 1104.410156 814.078125 1184.535156 805.445312 1183.15625 838.597656 C 1183.15625 841.015625 1181.773438 843.085938 1179.355469 843.429688 C 1145.164062 852.410156 1114.078125 868.640625 1079.195312 875.546875 C 1028.773438 885.5625 978 893.851562 926.539062 897.992188 C 873.351562 902.484375 819.820312 900.066406 766.632812 897.304688 C 741.074219 895.921875 714.136719 895.578125 688.578125 891.085938 C 676.144531 888.667969 664.054688 883.835938 665.4375 869.332031 C 666.472656 862.769531 676.835938 862.425781 676.144531 869.332031 Z M 676.144531 869.332031 " fill-opacity="1" fill-rule="nonzero"/><path fill="#ffffff" d="M 849.867188 743.632812 C 847.796875 744.320312 846.757812 736.378906 850.210938 737.070312 C 851.59375 737.414062 853.320312 737.761719 855.046875 738.105469 C 860.574219 738.796875 866.101562 739.140625 871.625 739.488281 C 889.585938 740.523438 907.546875 740.867188 925.503906 740.867188 C 969.710938 741.214844 1013.921875 740.523438 1058.128906 739.140625 C 1113.042969 737.414062 1167.957031 734.308594 1221.835938 723.601562 C 1268.460938 714.277344 1311.980469 694.9375 1356.1875 678.363281 C 1355.152344 680.78125 1354.117188 683.542969 1353.078125 685.960938 C 1351.007812 681.816406 1326.484375 681.125 1321.648438 680.433594 C 1304.035156 677.671875 1287.457031 673.183594 1269.5 672.492188 C 1223.910156 670.765625 1177.972656 680.089844 1133.421875 689.414062 C 1038.789062 709.441406 945.191406 729.816406 849.867188 743.632812 C 843.304688 744.667969 840.542969 734.652344 847.105469 733.617188 C 951.0625 718.765625 1052.601562 694.9375 1155.523438 674.910156 C 1199.734375 666.277344 1245.320312 659.371094 1290.566406 664.203125 C 1305.070312 665.585938 1318.886719 670.074219 1333.046875 672.148438 C 1340.644531 673.183594 1357.914062 672.839844 1362.058594 681.125 C 1363.785156 684.234375 1362.058594 687.34375 1358.949219 688.722656 C 1304.382812 709.097656 1251.882812 730.507812 1193.515625 739.488281 C 1137.21875 748.121094 1079.542969 749.847656 1022.554688 750.882812 C 974.894531 751.917969 926.886719 752.609375 879.222656 750.539062 C 868.515625 750.191406 856.085938 750.539062 845.722656 747.085938 C 837.777344 744.320312 840.542969 736.722656 847.105469 734.308594 C 853.320312 731.199219 855.738281 741.214844 849.867188 743.632812 Z M 849.867188 743.632812 " fill-opacity="1" fill-rule="nonzero"/><path fill="#ffffff" d="M 418.839844 1069.621094 C 506.5625 1070.3125 596.015625 1078.945312 677.179688 1113.824219 C 694.792969 1121.421875 711.71875 1130.746094 727.949219 1140.761719 C 742.109375 1149.738281 754.199219 1160.097656 769.394531 1167.351562 C 775.957031 1170.460938 790.460938 1175.984375 790.808594 1185.308594 C 791.5 1197.050781 775.613281 1203.265625 766.285156 1205.335938 C 686.160156 1222.949219 608.105469 1191.523438 532.8125 1169.078125 C 506.910156 1161.480469 481.351562 1153.882812 455.449219 1146.285156 C 431.617188 1139.378906 408.132812 1132.472656 387.753906 1117.625 C 380.503906 1112.097656 360.816406 1097.25 363.925781 1086.199219 C 367.378906 1073.765625 387.410156 1071.003906 397.769531 1069.621094 C 405.023438 1069.277344 411.929688 1069.277344 418.839844 1069.621094 C 425.402344 1069.96875 425.402344 1080.328125 418.839844 1079.984375 C 409.511719 1079.292969 400.1875 1079.984375 390.863281 1081.710938 C 379.121094 1083.78125 372.214844 1087.925781 382.230469 1099.320312 C 397.078125 1116.585938 418.492188 1124.875 439.5625 1131.4375 C 482.042969 1144.90625 524.867188 1156.644531 567.695312 1169.421875 C 603.269531 1179.785156 639.1875 1194.632812 676.144531 1198.085938 C 703.773438 1200.847656 733.128906 1200.847656 760.761719 1196.359375 C 764.90625 1195.667969 783.210938 1189.796875 779.757812 1185.652344 C 776.300781 1181.507812 769.050781 1178.746094 764.214844 1176.328125 C 753.164062 1170.804688 744.527344 1164.933594 734.511719 1157.683594 C 707.226562 1138.34375 677.179688 1123.496094 645.75 1112.445312 C 573.566406 1086.199219 494.820312 1080.328125 418.492188 1079.636719 C 412.277344 1079.984375 412.277344 1069.621094 418.839844 1069.621094 Z M 418.839844 1069.621094 " fill-opacity="1" fill-rule="nonzero"/><path fill="#ffffff" d="M 290.359375 1140.761719 C 362.195312 1168.042969 431.964844 1201.539062 496.546875 1243.324219 C 510.707031 1252.648438 524.523438 1262.316406 537.992188 1272.675781 C 544.210938 1277.511719 555.609375 1283.382812 558.371094 1291.671875 C 561.480469 1302.03125 548.007812 1303.410156 541.445312 1304.101562 C 498.621094 1306.519531 450.957031 1292.359375 411.242188 1278.546875 C 392.589844 1272.332031 374.976562 1264.390625 359.78125 1251.957031 C 328.003906 1225.367188 307.28125 1182.546875 285.179688 1148.359375 C 281.378906 1142.832031 290.359375 1137.652344 294.15625 1143.179688 C 313.5 1172.875 331.457031 1204.992188 354.597656 1231.929688 C 369.105469 1248.847656 386.71875 1258.519531 407.441406 1266.117188 C 444.050781 1279.929688 483.769531 1288.90625 522.796875 1292.707031 C 529.011719 1293.398438 535.574219 1293.742188 541.792969 1293.398438 C 543.863281 1293.398438 546.28125 1293.050781 548.355469 1292.707031 C 551.808594 1292.015625 549.390625 1294.777344 548.355469 1294.085938 C 528.667969 1271.988281 497.585938 1255.410156 472.71875 1239.871094 C 414.695312 1203.957031 352.179688 1174.949219 288.632812 1150.777344 C 281.378906 1148.359375 284.140625 1138.34375 290.359375 1140.761719 Z M 290.359375 1140.761719 " fill-opacity="1" fill-rule="nonzero"/><path fill="#ffffff" d="M 1040.167969 586.160156 C 1127.894531 568.203125 1216.65625 555.425781 1305.761719 549.210938 C 1327.175781 547.828125 1348.589844 546.792969 1369.65625 546.449219 C 1384.507812 546.101562 1401.085938 544.03125 1415.246094 547.136719 C 1426.988281 549.554688 1420.082031 560.261719 1414.210938 564.75 C 1398.324219 576.144531 1377.601562 582.363281 1359.640625 588.921875 C 1332.011719 598.9375 1303.691406 607.226562 1275.371094 613.785156 C 1248.085938 620.003906 1221.144531 623.800781 1193.171875 622.074219 C 1142.054688 618.964844 1090.59375 605.5 1040.167969 595.828125 C 1033.605469 594.449219 1036.371094 584.777344 1042.933594 585.816406 C 1113.734375 599.28125 1186.261719 620.691406 1258.101562 606.535156 C 1304.726562 597.554688 1352.386719 583.398438 1395.214844 563.023438 C 1400.394531 560.605469 1405.578125 557.84375 1410.410156 554.734375 C 1414.902344 551.628906 1409.722656 555.769531 1412.828125 556.808594 C 1408.339844 555.425781 1402.46875 556.117188 1397.632812 556.117188 C 1358.949219 555.769531 1320.269531 557.84375 1281.585938 560.949219 C 1201.460938 567.511719 1121.332031 579.253906 1042.585938 595.484375 C 1036.714844 597.210938 1033.953125 587.542969 1040.167969 586.160156 Z M 1040.167969 586.160156 " fill-opacity="1" fill-rule="nonzero"/><path fill="#ffffff" d="M 993.890625 609.644531 C 911.691406 648.664062 840.195312 707.714844 767.667969 761.589844 C 688.230469 820.640625 609.140625 886.253906 529.703125 945.304688 C 458.558594 998.140625 388.101562 1050.976562 311.773438 1095.867188 C 238.898438 1139.035156 161.535156 1188.761719 81.753906 1217.425781 C 75.535156 1219.839844 72.773438 1189.105469 78.988281 1186.691406 C 159.808594 1157.335938 237.515625 1120.730469 311.425781 1076.875 C 388.101562 1031.636719 458.558594 978.109375 529.703125 924.929688 C 607.070312 867.257812 684.777344 809.933594 762.140625 752.265625 C 834.671875 698.394531 906.164062 639.339844 988.363281 600.320312 C 994.578125 597.902344 999.761719 606.878906 993.890625 609.644531 Z M 993.890625 609.644531 " fill-opacity="1" fill-rule="nonzero"/><path fill="#ffffff" d="M 998.035156 550.246094 C 1040.515625 486.015625 1079.195312 419.367188 1114.425781 350.644531 C 1132.730469 314.730469 1149.652344 277.78125 1164.851562 240.484375 C 1167.265625 234.613281 1170.03125 228.398438 1171.757812 222.183594 C 1172.792969 218.730469 1176.59375 221.835938 1173.828125 223.21875 C 1167.957031 226.324219 1163.121094 231.160156 1158.632812 235.648438 C 1123.75 268.457031 1093.011719 307.824219 1067.109375 348.226562 C 1027.734375 408.660156 1021.519531 484.632812 1008.050781 554.042969 C 1006.667969 560.605469 996.996094 557.84375 998.035156 551.28125 C 1007.359375 502.589844 1014.957031 453.207031 1028.773438 405.550781 C 1036.714844 378.269531 1050.183594 354.097656 1066.417969 330.617188 C 1081.960938 307.480469 1099.574219 284.6875 1118.222656 263.277344 C 1132.039062 247.390625 1146.199219 230.46875 1163.121094 218.039062 C 1168.996094 213.546875 1181.429688 208.367188 1181.773438 220.457031 C 1182.464844 231.160156 1173.828125 244.28125 1170.03125 253.953125 C 1161.742188 273.980469 1153.105469 293.664062 1143.78125 313.347656 C 1104.410156 397.609375 1057.785156 478.417969 1006.667969 555.769531 C 1003.214844 560.949219 994.234375 555.769531 998.035156 550.246094 Z M 998.035156 550.246094 " fill-opacity="1" fill-rule="nonzero"/><path fill="#ffffff" d="M 1081.269531 523.308594 C 1139.292969 494.648438 1196.277344 463.914062 1251.195312 429.726562 C 1279.515625 412.113281 1307.488281 393.464844 1333.394531 371.710938 C 1348.933594 358.585938 1370.695312 340.976562 1374.148438 319.21875 C 1374.839844 321.292969 1375.875 323.019531 1376.566406 325.089844 C 1349.972656 311.277344 1310.945312 333.378906 1287.804688 345.464844 C 1255.683594 362.730469 1225.289062 383.796875 1197.316406 407.625 C 1177.972656 424.199219 1160.707031 444.230469 1143.4375 463.222656 C 1124.785156 483.941406 1101.992188 505.351562 1088.175781 530.214844 C 1085.066406 536.085938 1076.089844 530.90625 1079.195312 525.035156 C 1093.355469 499.480469 1116.496094 477.382812 1135.839844 455.972656 C 1156.5625 433.523438 1176.9375 411.078125 1200.421875 391.738281 C 1230.125 367.566406 1262.9375 345.808594 1297.472656 328.890625 C 1321.648438 317.148438 1355.152344 302.644531 1381.398438 316.113281 C 1383.472656 317.148438 1384.164062 319.566406 1383.816406 321.984375 C 1380.710938 341.320312 1364.132812 357.207031 1350.660156 369.984375 C 1326.484375 392.429688 1298.855469 411.078125 1271.226562 429.035156 C 1212.167969 467.367188 1149.652344 500.863281 1086.449219 532.289062 C 1080.578125 535.050781 1075.398438 526.417969 1081.269531 523.308594 Z M 1081.269531 523.308594 " fill-opacity="1" fill-rule="nonzero"/></svg>